<svg width="21" height="19" viewBox="0 0 21 19" fill="none" xmlns="http://www.w3.org/2000/svg">
<path d="M16.8442 14.2278H15.9327V7.5875C15.9327 4.72297 13.7714 2.35339 10.985 2.04091V1.31178C10.985 0.94722 10.6986 0.660767 10.334 0.660767C9.96949 0.660767 9.68303 0.94722 9.68303 1.31178V2.04091C6.89662 2.35333 4.73537 4.72306 4.73537 7.5875V14.2278H3.82386C3.4593 14.2278 3.17285 14.5142 3.17285 14.8788C3.17285 15.2434 3.4593 15.5298 3.82386 15.5298H7.86016V15.66C7.86016 17.0142 8.9798 18.1338 10.3339 18.1338C11.6881 18.1338 12.8077 17.0142 12.8077 15.66V15.5298H16.844C17.2086 15.5298 17.495 15.2434 17.495 14.8788C17.495 14.5142 17.2086 14.2278 16.844 14.2278H16.8442ZM11.506 15.6601C11.506 16.3111 10.9852 16.8318 10.3342 16.8318C9.68317 16.8318 9.16241 16.3111 9.16241 15.6601C9.16241 15.6079 9.16241 15.5819 9.18839 15.5298H11.506V15.6601H11.506ZM6.03748 14.2278V7.5875C6.03748 5.21778 7.96437 3.29094 10.334 3.29094C12.7037 3.29094 14.6306 5.21797 14.6306 7.5875V14.2278H6.03748Z" fill="#60914C"/>
<path d="M3.7199 7.30108V7.27511C3.7199 5.58258 4.37091 3.96794 5.54268 2.74404C5.80316 2.48356 5.777 2.06704 5.5167 1.83253C5.25622 1.59821 4.8397 1.59821 4.6052 1.85851C3.22506 3.31672 2.44385 5.2438 2.44385 7.24886V7.30099C2.44385 7.66555 2.7303 7.952 3.09486 7.952C3.45941 7.952 3.71987 7.66555 3.71987 7.30099L3.7199 7.30108Z" fill="#60914C"/>
<path d="M18.2501 7.27504C18.2501 5.24389 17.4688 3.31686 16.0888 1.85865C15.8544 1.59817 15.4377 1.59817 15.1772 1.83267C14.9168 2.09315 14.9168 2.48368 15.1513 2.74418C16.323 3.96807 16.9481 5.58253 16.9741 7.27524V7.30122C16.9741 7.66577 17.2605 7.95223 17.6251 7.95223C17.9896 7.95223 18.2761 7.66577 18.2761 7.30122C18.2501 7.30104 18.2501 7.27506 18.2501 7.27506L18.2501 7.27504Z" fill="#60914C"/>
<path d="M3.87583 0.192069C3.61536 -0.0684092 3.19883 -0.0422528 2.96433 0.218043C1.14155 2.14508 0.125977 4.64486 0.125977 7.27498C0.125977 7.63953 0.41243 7.92599 0.776985 7.92599C1.14154 7.92599 1.42799 7.63953 1.42799 7.27498C1.42799 4.95739 2.31332 2.77004 3.90178 1.10342C4.1361 0.842937 4.11013 0.426273 3.87581 0.19191L3.87583 0.192069Z" fill="#60914C"/>
<path d="M16.7915 0.192069C16.531 0.452547 16.531 0.843078 16.7655 1.10357C18.354 2.77016 19.2393 4.9575 19.2393 7.27514C19.2393 7.63969 19.5258 7.92615 19.8903 7.92615C20.2549 7.92615 20.5413 7.63969 20.5413 7.27514C20.5413 4.61898 19.5258 2.11915 17.703 0.218203C17.4687 -0.0682507 17.052 -0.0682508 16.7915 0.192228L16.7915 0.192069Z" fill="#60914C"/>
</svg>
