<svg width="42" height="42" viewBox="0 0 42 42" fill="none" xmlns="http://www.w3.org/2000/svg">
<path d="M33.3023 1.51697H8.68673C4.64641 1.51697 1.37109 4.79718 1.37109 8.84352V33.4958C1.37109 37.5422 4.64641 40.8224 8.68673 40.8224H33.3023C37.3426 40.8224 40.618 37.5422 40.618 33.4958V8.84352C40.618 4.79718 37.3426 1.51697 33.3023 1.51697Z" stroke="#552EBA" stroke-width="2" stroke-linecap="round" stroke-linejoin="round"/>
<path d="M25.3718 12.6781H27.5531V7.91382H24.2637C19.6225 7.91382 17.3889 10.6911 17.3889 14.6536V18.4011H13.734V22.9271H17.3889V34.437H22.8655V22.9213H26.5146L27.5531 18.3953H22.8655V15.3043C22.8655 14.0377 23.5559 12.6781 25.3718 12.6781Z" fill="#552EBA"/>
</svg>
