<svg width="42" height="42" viewBox="0 0 42 42" fill="none" xmlns="http://www.w3.org/2000/svg">
<path d="M8.56512 28.2669C11.0983 28.5315 13.6389 27.8394 15.6893 26.3263C15.2252 26.2101 14.8307 26.1288 14.4478 26.0068C13.7656 25.7978 13.1377 25.4413 12.6083 24.9624C12.079 24.4834 11.6612 23.8939 11.3846 23.2353C11.1932 22.817 11.2338 22.7821 11.6921 22.7938C12.201 22.8534 12.7168 22.8059 13.2063 22.6543C12.4123 22.4473 11.6812 22.0483 11.0772 21.4923C10.1409 20.6567 9.57 19.4861 9.48755 18.2328C9.44694 17.7157 9.48755 17.6518 9.97487 17.89C10.4399 18.1149 10.9495 18.2321 11.4659 18.2328C11.1105 17.8847 10.7735 17.5181 10.4564 17.1347C9.92766 16.4241 9.6001 15.5838 9.50821 14.7024C9.41632 13.821 9.56351 12.9311 9.93427 12.1264C10.1373 11.6558 10.2127 11.6383 10.5492 12.0218C12.9088 14.7258 16.206 16.4309 19.7735 16.7919C20.3537 16.85 20.3885 16.7919 20.3247 16.2109C20.2347 15.2131 20.4411 14.2109 20.9179 13.3302C21.3948 12.4495 22.1209 11.7295 23.005 11.2607C23.8953 10.7991 24.9038 10.6166 25.8991 10.7368C26.8945 10.857 27.8307 11.2744 28.586 11.9347C28.7031 12.0551 28.852 12.1397 29.0153 12.1788C29.1785 12.2179 29.3495 12.2098 29.5084 12.1554C30.2717 11.9507 31.0108 11.6644 31.713 11.3014C31.8232 11.2433 31.916 11.1212 32.1248 11.1968C31.7758 12.2113 31.1337 13.099 30.28 13.7474C31.1078 13.6352 31.9173 13.4145 32.6876 13.0909C32.6874 13.2007 32.6641 13.3092 32.6191 13.4093C32.5741 13.5095 32.5085 13.599 32.4265 13.6719C31.9453 14.3288 31.3752 14.9154 30.7325 15.4149C30.5947 15.5079 30.4843 15.6361 30.4129 15.7864C30.3414 15.9366 30.3116 16.1033 30.3264 16.269C30.3769 19.4839 29.322 22.6185 27.3386 25.1469C26.2373 26.6398 24.8364 27.8855 23.2258 28.8041C21.6153 29.7226 19.8307 30.2937 17.9867 30.4805C14.8786 30.8811 11.7254 30.2418 9.01764 28.662L8.72176 28.4702C8.66462 28.4064 8.61227 28.3384 8.56512 28.2669Z" fill="#552EBA"/>
<path d="M32.9312 1H8.31564C4.27532 1 1 4.28021 1 8.32655V32.9788C1 37.0252 4.27532 40.3054 8.31564 40.3054H32.9312C36.9715 40.3054 40.2469 37.0252 40.2469 32.9788V8.32655C40.2469 4.28021 36.9715 1 32.9312 1Z" stroke="#552EBA" stroke-width="2" stroke-linecap="round" stroke-linejoin="round"/>
</svg>
