<svg width="160" height="54" viewBox="0 0 160 54" fill="none" xmlns="http://www.w3.org/2000/svg">
<g clip-path="url(#clip0_1_18)">
<path d="M25.7235 12.2622C26.8601 12.2622 27.7814 11.345 27.7814 10.2136C27.7814 9.08222 26.8601 8.16504 25.7235 8.16504C24.587 8.16504 23.6656 9.08222 23.6656 10.2136C23.6656 11.345 24.587 12.2622 25.7235 12.2622Z" fill="#7645D8"/>
<path d="M18.5357 12.2622C19.6722 12.2622 20.5935 11.345 20.5935 10.2136C20.5935 9.08222 19.6722 8.16504 18.5357 8.16504C17.3991 8.16504 16.4778 9.08222 16.4778 10.2136C16.4778 11.345 17.3991 12.2622 18.5357 12.2622Z" fill="#7645D8"/>
<path d="M32.8966 12.2622C34.0332 12.2622 34.9545 11.345 34.9545 10.2136C34.9545 9.08222 34.0332 8.16504 32.8966 8.16504C31.7601 8.16504 30.8387 9.08222 30.8387 10.2136C30.8387 11.345 31.7601 12.2622 32.8966 12.2622Z" fill="#7645D8"/>
<path d="M7.26135 -0.0585327V20.4273H21.6665V26.5584H23.7243L34.0137 20.4273H44.3031V-0.0585327H7.26135ZM40.0845 16.3301H32.7349L25.6646 20.5444V16.3301H11.3771V4.08253H40.0845V16.3301Z" fill="#FFAE00"/>
<path d="M21.3137 47.1906H15.5517L14.2876 43.0934H6.61461L5.35046 47.1906H0L7.34956 25.5341H13.9201L21.3137 47.1906ZM13.0528 38.9084L10.4511 30.6702L7.84933 38.967L13.0528 38.9084Z" fill="#7645D8"/>
<path d="M36.0716 42.0106C36.0946 42.7674 35.939 43.519 35.6174 44.2051C35.2957 44.8913 34.817 45.4928 34.2196 45.9614C32.6188 47.101 30.6712 47.6542 28.7074 47.5271C27.3028 47.5516 25.9077 47.2928 24.6063 46.7662C23.5328 46.3723 22.5375 45.7927 21.6665 45.0542L23.7832 41.8057C25.2126 43.0066 26.9885 43.724 28.8544 43.8543C30.3243 43.8543 31.0446 43.4738 31.0446 42.7276C31.0446 41.9813 30.2508 41.6447 28.678 41.2643C28.5999 41.2747 28.5208 41.2747 28.4428 41.2643C27.1934 40.9131 26.2967 40.6204 25.7676 40.4156C25.4656 40.2912 25.1711 40.1495 24.8856 39.9912C24.6798 39.8595 24.3418 39.6254 23.8861 39.2742C23.4242 38.9137 23.0644 38.4397 22.8424 37.8987C22.5978 37.2793 22.478 36.6181 22.4897 35.9526C22.4689 35.2176 22.6281 34.4886 22.9533 33.8283C23.2785 33.1681 23.76 32.5965 24.3564 32.1627C25.8256 31.128 27.6006 30.6128 29.3983 30.6994C30.5968 30.6914 31.7886 30.8792 32.926 31.2555C33.768 31.4882 34.5669 31.8538 35.2926 32.3383L35.9834 32.8505L34.1608 35.9526C32.8755 34.8988 31.2689 34.3106 29.604 34.2845C28.1341 34.2845 27.4433 34.6649 27.4433 35.4112C27.4295 35.4985 27.4295 35.5873 27.4433 35.6746C27.4741 35.7712 27.5241 35.8608 27.5903 35.938C27.6616 36.0139 27.7404 36.0825 27.8254 36.1428C27.9208 36.2136 28.0245 36.2725 28.1341 36.3184L28.4575 36.4647L28.8397 36.5964L29.2513 36.7281L29.6922 36.8452L30.0891 36.9476C31.0363 37.1879 31.9647 37.496 32.8672 37.8695C33.7878 38.1069 34.6025 38.643 35.1829 39.3929C35.7632 40.1429 36.0759 41.0639 36.0716 42.0106V42.0106Z" fill="#7645D8"/>
<path d="M55.4745 47.1905H49.4773L45.7437 41.0887L44.2738 42.6544V47.1905H38.9968V24.8903H44.2738V36.8159L49.2421 30.9628H55.2687L49.2715 37.2403L55.4745 47.1905Z" fill="#7645D8"/>
<path d="M76.8029 47.1905H73.2457L72.7606 45.2151L72.5548 45.4639C72.3535 45.6664 72.1319 45.8478 71.8934 46.0053C71.5219 46.2797 71.1229 46.5151 70.7027 46.7077C70.1224 46.962 69.5163 47.1534 68.8948 47.2783C68.0725 47.4459 67.2352 47.5292 66.3959 47.5271C65.105 47.5472 63.8242 47.297 62.6367 46.7929C61.4491 46.2887 60.3811 45.5418 59.502 44.6005C58.5071 43.4919 57.7418 42.1987 57.2499 40.7951C56.758 39.3915 56.5493 37.905 56.6357 36.4209C56.5829 34.2785 57.1218 32.1628 58.1938 30.3044C59.1144 28.6697 60.4935 27.3375 62.1625 26.4706C63.8111 25.6406 65.6365 25.219 67.4837 25.2414C69.0836 25.1644 70.6795 25.4603 72.1443 26.1056C73.609 26.7508 74.9023 27.7276 75.921 28.9582L72.8929 32.1335C72.2536 31.3871 71.464 30.7827 70.5753 30.3593C69.6866 29.9358 68.7184 29.7027 67.7335 29.6752C66.9935 29.6638 66.2596 29.8093 65.5804 30.1019C64.9012 30.3946 64.2923 30.8277 63.7942 31.3726C62.6361 32.7297 62.056 34.4833 62.1773 36.2599C62.0521 38.043 62.6146 39.8065 63.7501 41.1911C64.2421 41.7348 64.846 42.1665 65.5207 42.4569C66.1954 42.7473 66.9251 42.8895 67.6601 42.8739C68.4389 42.8878 69.2144 42.769 69.9531 42.5227C70.4453 42.3743 70.901 42.1251 71.2907 41.7911L71.6288 41.4399V38.9377H67.9393V35.06H76.7588L76.8029 47.1905Z" fill="#7645D8"/>
<path d="M94.5301 32.8944C96.045 34.6008 96.8811 36.7995 96.8811 39.0767C96.8811 41.354 96.045 43.5527 94.5301 45.2591C93.6941 46.0338 92.7104 46.6337 91.6374 47.0233C90.5643 47.4128 89.4237 47.5842 88.283 47.5271C87.141 47.5874 85.9984 47.4219 84.9211 47.0401C83.8439 46.6584 82.8532 46.068 82.0064 45.303C80.4966 43.5999 79.6635 41.4067 79.6635 39.1353C79.6635 36.8639 80.4966 34.6706 82.0064 32.9676C82.8388 32.1901 83.819 31.5864 84.8894 31.1918C85.9597 30.7973 87.0986 30.6199 88.2389 30.6702C89.383 30.6104 90.5276 30.7761 91.6073 31.1578C92.6869 31.5395 93.6801 32.1297 94.5301 32.8944V32.8944ZM91.5021 39.0694C91.5464 37.9304 91.2607 36.8028 90.6789 35.821C90.4331 35.4114 90.0807 35.0755 89.6589 34.8489C89.2372 34.6222 88.7618 34.5132 88.283 34.5333C87.7978 34.5115 87.3156 34.6194 86.8865 34.8458C86.4574 35.0723 86.097 35.409 85.8429 35.821C85.2611 36.8028 84.9754 37.9304 85.0197 39.0694C84.9719 40.2227 85.2576 41.3654 85.8429 42.3618C86.1094 42.7671 86.4729 43.1002 86.9006 43.3312C87.3284 43.5622 87.807 43.6839 88.2937 43.6853C88.7803 43.6868 89.2597 43.568 89.6889 43.3395C90.118 43.1111 90.4834 42.7801 90.7524 42.3764C91.3149 41.3682 91.5751 40.2205 91.5021 39.0694V39.0694Z" fill="#7645D8"/>
<path d="M115.476 30.9921L109.273 47.1906H103.761L97.6022 30.9921H103.247L106.569 41.8642L109.861 30.9921H115.476Z" fill="#7645D8"/>
<path d="M120.93 44.6591C120.957 45.0452 120.902 45.4327 120.767 45.7959C120.633 46.1591 120.423 46.4898 120.151 46.7662C119.558 47.2858 118.795 47.5724 118.005 47.5724C117.215 47.5724 116.452 47.2858 115.858 46.7662C115.59 46.5013 115.379 46.1838 115.24 45.8337C115.101 45.4836 115.036 45.1085 115.05 44.7323C115.037 44.3604 115.102 43.99 115.241 43.6447C115.38 43.2994 115.591 42.987 115.858 42.7276C116.143 42.4616 116.478 42.2547 116.844 42.119C117.21 41.9833 117.6 41.9216 117.99 41.9374C118.783 41.9168 119.553 42.2056 120.136 42.7422C120.39 42.9927 120.592 43.2914 120.728 43.6206C120.864 43.9499 120.933 44.303 120.93 44.6591Z" fill="#7645D8"/>
<path d="M140.935 43.4299C140.935 46.7369 140.249 49.0928 138.877 50.4976C137.959 51.3852 136.866 52.0737 135.666 52.5194C134.467 52.9652 133.188 53.1587 131.91 53.0875C130.492 53.0945 129.081 52.8974 127.721 52.5022C126.615 52.2129 125.549 51.7903 124.546 51.2438L126.163 47.6003C127.834 48.548 129.722 49.0519 131.645 49.0635C132.228 49.1159 132.815 49.0522 133.373 48.8764C133.931 48.7005 134.448 48.416 134.894 48.0393C135.226 47.666 135.479 47.23 135.638 46.7574C135.797 46.2848 135.859 45.7852 135.82 45.2883V44.0592C135.609 44.392 135.363 44.7011 135.085 44.981C134.617 45.3938 134.086 45.7297 133.512 45.976C132.747 46.3439 131.907 46.5292 131.057 46.5175C130.087 46.5608 129.119 46.3859 128.226 46.0059C127.333 45.626 126.537 45.0506 125.898 44.3225C124.575 42.7041 123.9 40.656 124.002 38.5719C123.903 36.4784 124.601 34.4248 125.957 32.8212C126.602 32.0969 127.401 31.5244 128.296 31.1448C129.191 30.7652 130.159 30.5881 131.131 30.6263C131.795 30.6202 132.456 30.7241 133.086 30.9336C133.625 31.087 134.126 31.3512 134.556 31.7091C134.839 31.9535 135.1 32.2229 135.335 32.5139C135.497 32.7334 135.629 32.9236 135.746 33.1139L136.084 30.9629H141.023L140.935 43.4299ZM134.967 41.3082C135.56 40.5047 135.861 39.5242 135.82 38.528C135.858 37.5343 135.564 36.5562 134.982 35.7478C134.706 35.3839 134.344 35.0924 133.93 34.8987C133.515 34.7049 133.059 34.6146 132.601 34.6357C132.142 34.6219 131.686 34.7154 131.27 34.9085C130.854 35.1016 130.489 35.389 130.205 35.7478C129.612 36.5512 129.311 37.5317 129.352 38.528C129.309 39.5267 129.604 40.5109 130.19 41.3228C130.467 41.685 130.829 41.9743 131.244 42.1655C131.659 42.3568 132.115 42.4443 132.571 42.4203C133.03 42.434 133.486 42.3406 133.902 42.1475C134.318 41.9543 134.683 41.6669 134.967 41.3082V41.3082Z" fill="#7645D8"/>
<path d="M160 40.3717H149.152C149.141 40.8522 149.243 41.3287 149.45 41.7631C149.656 42.1975 149.962 42.5779 150.343 42.8739C151.163 43.4481 152.148 43.7409 153.15 43.708C154.089 43.7103 155.021 43.5417 155.899 43.2104C156.599 42.9835 157.259 42.6477 157.854 42.2154L159.559 45.3029C159.478 45.3929 159.389 45.4761 159.294 45.5517C159.032 45.7543 158.757 45.94 158.471 46.1077C158 46.3793 157.509 46.6142 157.001 46.8101C156.349 47.0538 155.675 47.2351 154.988 47.3515C154.115 47.5119 153.229 47.5902 152.342 47.5856C150.086 47.6541 147.894 46.8338 146.242 45.3029C145.433 44.4974 144.804 43.531 144.396 42.4669C143.988 41.4028 143.811 40.265 143.875 39.1279C143.81 37.9819 143.987 36.835 144.394 35.7613C144.802 34.6876 145.431 33.711 146.242 32.8944C147.91 31.3775 150.113 30.5781 152.371 30.6702C153.418 30.6142 154.465 30.7899 155.436 31.1846C156.407 31.5793 157.278 32.1832 157.986 32.9529C159.4 34.6531 160.119 36.8213 160 39.0255V40.3717ZM155.046 37.1964C155.077 36.3933 154.81 35.607 154.297 34.9869C154.037 34.6819 153.708 34.4422 153.338 34.2871C152.968 34.132 152.566 34.066 152.165 34.0943C151.756 34.0691 151.347 34.1364 150.968 34.2909C150.588 34.4455 150.249 34.6834 149.975 34.9869C149.432 35.6027 149.107 36.3789 149.049 37.1964H155.046Z" fill="#7645D8"/>
</g>
<defs>
<clipPath id="clip0_1_18">
<rect width="160" height="53.0876" fill="white"/>
</clipPath>
</defs>
</svg>
