<svg width="20" height="20" viewBox="0 0 20 20" fill="none" xmlns="http://www.w3.org/2000/svg">
<path d="M0.0308758 9.42927C0.203669 11.495 1.10882 13.4316 2.5836 14.8898C4.05839 16.348 6.00594 17.2322 8.07542 17.3831C10.1449 17.5341 12.2002 16.9418 13.8715 15.7131L17.7969 19.6219C18.0389 19.864 18.3672 20 18.7097 20C19.0519 20 19.3804 19.8642 19.6222 19.6221C19.8643 19.3803 20.0002 19.0521 20 18.7099C20.0002 18.368 19.8643 18.0398 19.6225 17.798L15.7101 13.8762C17.4104 11.5802 17.8747 8.59665 16.952 5.89296C16.0295 3.18967 13.8377 1.11086 11.0874 0.330895C8.33737 -0.449127 5.37921 0.168825 3.17236 1.98485C0.965679 3.80068 -0.208563 6.5828 0.0305822 9.42886L0.0308758 9.42927ZM8.71084 2.59754C10.3362 2.59754 11.8949 3.24267 13.0441 4.39087C14.1934 5.53906 14.8391 7.09663 14.8391 8.72043C14.8391 10.3442 14.1934 11.9016 13.0441 13.0498C11.8949 14.198 10.3361 14.8431 8.71084 14.8431C7.08555 14.8431 5.52655 14.198 4.37731 13.0498C3.22806 11.9016 2.58233 10.3442 2.58233 8.72043C2.58233 7.09663 3.22806 5.53906 4.37731 4.39087C5.52655 3.24267 7.08555 2.59754 8.71084 2.59754Z" fill="#6F4ACF"/>
</svg>
