<svg width="16" height="16" viewBox="0 0 16 16" fill="none" xmlns="http://www.w3.org/2000/svg">
<path d="M0.0247006 7.54342C0.162935 9.19601 0.887052 10.7453 2.06688 11.9118C3.24671 13.0784 4.80475 13.7858 6.46033 13.9065C8.11592 14.0273 9.76012 13.5535 11.0972 12.5705L14.2375 15.6975C14.4312 15.8912 14.6938 16 14.9677 16C15.2415 16 15.5043 15.8914 15.6978 15.6977C15.8915 15.5042 16.0002 15.2417 16 14.9679C16.0002 14.6944 15.8915 14.4319 15.698 14.2384L12.5681 11.1009C13.9283 9.26419 14.2998 6.87732 13.5616 4.71437C12.8236 2.55174 11.0702 0.888687 8.86994 0.264716C6.66989 -0.359301 4.30337 0.13506 2.53789 1.58788C0.772543 3.04054 -0.16685 5.26624 0.0244658 7.54309L0.0247006 7.54342ZM6.96867 2.07803C8.26895 2.07803 9.51591 2.59414 10.4353 3.51269C11.3547 4.43125 11.8713 5.6773 11.8713 6.97635C11.8713 8.27539 11.3547 9.52126 10.4353 10.4398C9.51591 11.3584 8.2689 11.8745 6.96867 11.8745C5.66844 11.8745 4.42124 11.3584 3.50184 10.4398C2.58245 9.52126 2.06587 8.27539 2.06587 6.97635C2.06587 5.6773 2.58245 4.43125 3.50184 3.51269C4.42124 2.59414 5.66844 2.07803 6.96867 2.07803Z" fill="white"/>
</svg>
