<svg width="22" height="12" viewBox="0 0 22 12" fill="none" xmlns="http://www.w3.org/2000/svg">
<path d="M16.3419 11L5.94737 11C4.16859 10.9887 2.5312 10.0255 1.65129 8.47286C0.771803 6.92056 0.783933 5.01483 1.68324 3.47369C2.58253 1.93238 4.23205 0.990199 6.0107 1.00178C6.032 0.999405 6.0533 0.999405 6.0743 1.00178L17.4744 1.00178C18.6334 1.0499 19.6836 1.70158 20.2454 2.72071C20.8071 3.73983 20.7991 4.97902 20.2244 5.99103C19.6499 7.003 18.5914 7.64076 17.4318 7.67431L5.87522 7.67431C5.28712 7.67431 4.74399 7.35946 4.44992 6.84826C4.15617 6.33706 4.15617 5.70705 4.44992 5.19589C4.74397 4.68469 5.28713 4.36984 5.87522 4.36984L16.3419 4.36984" stroke="#737373" stroke-linejoin="round"/>
</svg>
