<svg width="40" height="40" viewBox="0 0 40 40" fill="none" xmlns="http://www.w3.org/2000/svg">
<path fill-rule="evenodd" clip-rule="evenodd" d="M19.9994 0C31.0453 0 40 8.95391 40 19.9994C40 31.0448 31.0456 40 19.9994 40C8.95341 40 0 31.0456 0 19.9994C0 8.95341 8.95391 0 19.9994 0ZM32.4587 33.5165C31.6289 27.3894 26.3444 22.6262 19.9994 22.6262C13.6544 22.6262 8.36986 27.3894 7.54003 33.5165C3.8976 30.1575 1.61517 25.3455 1.61517 20.0006C1.61517 9.84716 9.84603 1.61679 19.999 1.61679C30.152 1.61679 38.3828 9.84766 38.3828 20.0006C38.3828 25.3458 36.1009 30.158 32.458 33.5165H32.4587ZM19.9994 5.73398C24.149 5.73398 27.5135 9.09792 27.5135 13.2471C27.5135 17.3962 24.1495 20.7601 19.9994 20.7601C15.8502 20.7601 12.4863 17.3962 12.4863 13.2471C12.4863 9.09792 15.8502 5.73398 19.9994 5.73398Z" fill="#BD6F28"/>
</svg>